<svg xmlns="http://www.w3.org/2000/svg" width="73" height="69" viewBox="0 0 73 69" fill="none">
    <path d="M65.6001 20.897C68.4532 20.897 70.7734 18.5761 70.7734 15.7236C70.7734 12.8712 68.4532 10.5503 65.6001 10.5503C62.747 10.5503 60.4268 12.8712 60.4268 15.7236C60.4268 18.5761 62.747 20.897 65.6001 20.897ZM65.6001 13.137C67.026 13.137 68.1868 14.2971 68.1868 15.7236C68.1868 17.1502 67.026 18.3103 65.6001 18.3103C64.1742 18.3103 63.0134 17.1502 63.0134 15.7236C63.0134 14.2971 64.1742 13.137 65.6001 13.137Z" fill="white"/>
    <path d="M11.6888 25.5772C12.0374 25.5772 12.3859 25.4363 12.6411 25.1585C13.5959 24.119 14.897 23.5247 16.3051 23.4856C17.0187 23.4659 17.5806 22.8713 17.5619 22.157C17.5418 21.4428 16.9669 20.8695 16.232 20.9002C14.1203 20.9591 12.1677 21.8502 10.7366 23.4093C10.2529 23.9354 10.2882 24.7531 10.8136 25.2361C11.0622 25.4647 11.3755 25.5772 11.6888 25.5772Z" fill="white"/>
    <path d="M20.4612 31.9307C19.5646 33.0245 18.3001 33.6925 16.8981 33.8112C16.1871 33.872 15.6591 34.4976 15.7196 35.2093C15.7765 35.8838 16.341 36.3933 17.0064 36.3933C17.043 36.3933 17.0798 36.392 17.1177 36.3888C19.1902 36.2126 21.138 35.1851 22.4614 33.5697C22.9147 33.0171 22.8326 32.2023 22.2806 31.7496C21.7281 31.296 20.912 31.3801 20.4612 31.9307Z" fill="white"/>
    <path d="M20.0339 23.1174C19.5363 23.6295 19.5476 24.4485 20.0591 24.9461C21.0708 25.93 21.6279 27.2473 21.6279 28.657C21.6279 29.3713 22.2064 29.9504 22.9213 29.9504C23.6362 29.9504 24.2146 29.3713 24.2146 28.657C24.2146 26.5427 23.3798 24.5669 21.863 23.0921C21.3499 22.5939 20.5315 22.6058 20.0339 23.1174Z" fill="white"/>
    <path d="M11.288 28.9539C11.2489 28.2409 10.6249 27.6945 9.92517 27.7349C9.21158 27.7753 8.66579 28.3854 8.70621 29.099C8.82358 31.2081 9.77094 33.1339 11.3711 34.5217C11.6162 34.7331 11.9179 34.8376 12.2186 34.8376C12.5797 34.8376 12.9396 34.6866 13.196 34.391C13.6632 33.8517 13.6054 33.0347 13.066 32.5671C11.999 31.6417 11.3676 30.3584 11.288 28.9539Z" fill="white"/>
    <path d="M70.7738 36.417H55.7815L35.0316 0.845456C34.5667 0.0510263 33.2607 0.0510263 32.7961 0.845456L23.7014 16.4369C21.5758 15.1711 19.1026 14.4303 16.4538 14.4303C8.60913 14.4303 2.22718 20.8123 2.22718 28.657C2.22718 33.9267 5.11422 38.5261 9.38287 40.9844L1.10941 55.1651C0.876938 55.5648 0.874351 56.0595 1.10553 56.461C1.33672 56.8626 1.76352 57.1103 2.22718 57.1103H33.9138C34.6287 57.1103 35.2072 56.5312 35.2072 55.817C35.2072 55.1027 34.6287 54.5236 33.9138 54.5236H4.4792L11.7464 42.0666C13.2225 42.5865 14.8023 42.8836 16.4538 42.8836C24.2986 42.8836 30.6805 36.5017 30.6805 28.657C30.6805 24.3941 28.7864 20.5733 25.8066 17.9634L33.9138 4.06424L52.7855 36.4173H41.0272C40.3123 36.4173 39.7338 36.9964 39.7338 37.7106V67.4573C39.7338 68.1715 40.3123 68.7506 41.0272 68.7506H70.7738C71.4887 68.7506 72.0672 68.1715 72.0672 67.4573V37.7106C72.0672 36.9961 71.4887 36.417 70.7738 36.417ZM28.0938 28.657C28.0938 35.0751 22.8727 40.297 16.4538 40.297C10.035 40.297 4.81385 35.0751 4.81385 28.657C4.81385 22.2388 10.035 17.017 16.4538 17.017C22.8727 17.017 28.0938 22.2391 28.0938 28.657ZM69.4805 66.1636H42.3205V39.0036H69.4805V66.1636Z" fill="white"/>
    <path d="M57.1942 7.48804C58.0028 7.48804 58.6589 6.83232 58.6589 6.02366C58.6589 5.21468 58.0032 4.55896 57.1942 4.55896C56.3852 4.55896 55.7295 5.21468 55.7295 6.02366C55.7298 6.83264 56.3855 7.48804 57.1942 7.48804Z" fill="white"/>
</svg>