<svg xmlns="http://www.w3.org/2000/svg" width="68" height="74" viewBox="0 0 68 74" fill="none">
    <path d="M10.6931 10.0133C13.3991 10.0133 15.5998 7.81203 15.5998 5.10662C15.5998 2.4012 13.3991 0.199951 10.6931 0.199951C7.98709 0.199951 5.78645 2.4012 5.78645 5.10662C5.78645 7.81203 7.98709 10.0133 10.6931 10.0133ZM10.6931 2.65328C12.0455 2.65328 13.1464 3.7536 13.1464 5.10662C13.1464 6.45963 12.0455 7.55995 10.6931 7.55995C9.34071 7.55995 8.23978 6.45963 8.23978 5.10662C8.23978 3.7536 9.34071 2.65328 10.6931 2.65328ZM46.7172 10.6266C46.7172 9.85934 47.3392 9.23742 48.1064 9.23742C48.8737 9.23742 49.4956 9.85934 49.4956 10.6266C49.4956 11.3936 48.8737 12.0155 48.1064 12.0155C47.3392 12.0155 46.7172 11.3936 46.7172 10.6266ZM57.7572 5.71995C57.7572 4.95267 58.3792 4.33075 59.1464 4.33075C59.9137 4.33075 60.5356 4.95267 60.5356 5.71995C60.5356 6.48692 59.9137 7.10884 59.1464 7.10884C58.3792 7.10884 57.7572 6.48692 57.7572 5.71995ZM60.5356 64.6C60.5356 65.3669 59.9137 65.9888 59.1464 65.9888C58.3792 65.9888 57.7572 65.3669 57.7572 64.6C57.7572 63.8327 58.3792 63.2108 59.1464 63.2108C59.9137 63.2108 60.5356 63.8327 60.5356 64.6ZM32.8666 35.0161C33.0559 35.4743 33.5039 35.7733 33.9998 35.7733C34.4957 35.7733 34.9437 35.4743 35.1329 35.0161L41.7382 19.0701C41.8627 18.7695 41.8627 18.4316 41.7382 18.1311L35.1329 2.18378C34.9437 1.72562 34.4957 1.42662 33.9998 1.42662C33.5039 1.42662 33.0559 1.72562 32.8666 2.18378L26.2614 18.1311C26.1368 18.4316 26.1368 18.7695 26.2614 19.0701L32.8666 35.0161ZM33.9998 5.85887L39.2778 18.6006L33.9998 31.341L28.7217 18.6006L33.9998 5.85887ZM35.1329 40.2104C34.9437 39.7523 34.4957 39.4533 33.9998 39.4533C33.5039 39.4533 33.0559 39.7523 32.8666 40.2104L26.2614 56.1577C26.1368 56.4583 26.1368 56.7962 26.2614 57.0967L32.8666 73.0428C33.0559 73.501 33.5039 73.7999 33.9998 73.7999C34.4957 73.7999 34.9437 73.501 35.1329 73.0428L41.7382 57.0967C41.8627 56.7962 41.8627 56.4583 41.7382 56.1577L35.1329 40.2104ZM33.9998 69.3677L28.7217 56.6272L33.9998 43.8855L39.2778 56.6272L33.9998 69.3677ZM32.2052 39.0742C32.016 38.6161 31.5691 38.3165 31.0733 38.3159L13.8138 38.2978H13.8125C13.4878 38.2978 13.1765 38.4266 12.9465 38.6559L0.7289 50.849C0.376846 51.2002 0.271353 51.727 0.461793 52.1858C0.651007 52.6439 1.09782 52.9436 1.5937 52.9442L18.8544 52.9616H18.8557C19.1804 52.9616 19.4917 52.8328 19.7217 52.6035L31.9381 40.411C32.2904 40.0602 32.3959 39.533 32.2052 39.0742ZM18.349 50.5077L4.55733 50.4939L14.3191 40.7517L28.1096 40.7661L18.349 50.5077ZM49.1451 22.2643C48.8204 22.2643 48.5091 22.3931 48.2791 22.6225L36.0615 34.8156C35.7094 35.1667 35.604 35.6936 35.7944 36.1523C35.9836 36.6105 36.4304 36.9101 36.9263 36.9107L54.187 36.9282H54.1883C54.513 36.9282 54.8243 36.7994 55.0543 36.57L67.2707 24.3776C67.6227 24.0264 67.7282 23.4996 67.5378 23.0408C67.3486 22.5826 66.9017 22.283 66.4059 22.2824L49.1464 22.2643H49.1451ZM63.4422 24.7327L53.6816 34.4742L39.8899 34.4604L49.6517 24.7183L63.4422 24.7327ZM55.0531 38.6559C54.8231 38.4266 54.5115 38.2978 54.187 38.2978H54.1858L36.9263 38.3159C36.4304 38.3165 35.9836 38.6161 35.7944 39.0742C35.604 39.533 35.7094 40.0602 36.0615 40.411L48.2779 52.6035C48.5079 52.8328 48.8194 52.9616 49.1439 52.9616H49.1451L66.4059 52.9442C66.9017 52.9436 67.3486 52.6439 67.5378 52.1858C67.7282 51.727 67.6227 51.1998 67.2707 50.849L55.0531 38.6559ZM12.9453 36.57C13.1753 36.7994 13.4868 36.9282 13.8113 36.9282H13.8125L31.0733 36.9107C31.5691 36.9101 32.016 36.6105 32.2052 36.1523C32.3956 35.6936 32.2901 35.1664 31.9381 34.8156L19.7205 22.6225C19.4905 22.3931 19.1789 22.2643 18.8544 22.2643H18.8532L1.5937 22.2824C1.09782 22.283 0.651007 22.5826 0.461793 23.0408C0.271353 23.4996 0.376846 24.0267 0.7289 24.3776L12.9453 36.57Z" fill="white"/>
</svg>