<svg xmlns="http://www.w3.org/2000/svg" width="58" height="52" viewBox="0 0 58 52" fill="none">
    <path d="M42.1916 16.64C39.8974 16.64 38.0316 14.7742 38.0316 12.48C38.0316 10.1858 39.8974 8.32 42.1916 8.32C44.4859 8.32 46.3516 10.1858 46.3516 12.48C46.3516 14.7742 44.4861 16.64 42.1916 16.64ZM42.1916 10.4C41.045 10.4 40.1116 11.3334 40.1116 12.48C40.1116 13.6266 41.045 14.56 42.1916 14.56C43.3382 14.56 44.2716 13.6266 44.2716 12.48C44.2716 11.3334 43.3385 10.4 42.1916 10.4ZM38.6894 2.6C38.6894 1.94948 38.1622 1.4222 37.5119 1.4222C36.8616 1.4222 36.3344 1.94948 36.3344 2.6C36.3344 3.25026 36.8616 3.77754 37.5119 3.77754C38.1622 3.77754 38.6894 3.25026 38.6894 2.6ZM55.0541 18.2C55.0541 18.8503 55.5814 19.3775 56.2316 19.3775C56.8819 19.3775 57.4092 18.8503 57.4092 18.2C57.4092 17.5495 56.8819 17.0222 56.2316 17.0222C55.5814 17.0222 55.0541 17.5495 55.0541 18.2ZM1.63165 0H15.3386C22.1168 0 27.6316 5.51486 27.6316 12.2931V24.96H40.2986C47.0768 24.96 52.5916 30.4749 52.5916 37.2531V50.96C52.5916 51.5349 52.1265 52 51.5516 52H37.8447C31.0665 52 25.5516 46.4851 25.5516 39.7069V27.04H12.8847C6.10651 27.04 0.591637 21.5251 0.591637 14.7469V1.04C0.591637 0.46514 1.05679 0 1.63165 0ZM27.6316 39.7069C27.6316 45.3385 32.2131 49.92 37.8447 49.92H50.5116V37.2531C50.5116 31.6215 45.9302 27.04 40.2986 27.04H27.6316V39.7069Z" fill="white"/>
</svg>