<svg xmlns="http://www.w3.org/2000/svg" width="52" height="57" viewBox="0 0 52 57" fill="none">
    <path d="M49.7598 39.1906C51.2403 35.6959 52 31.9859 52 28.1443C52 12.6252 39.4944 0 24.1224 0C23.5066 0 23.0073 0.504064 23.0073 1.12577V3.37731C23.0073 3.99902 23.5066 4.50308 24.1224 4.50308C24.7383 4.50308 25.2375 3.99902 25.2375 3.37731V2.27997C38.8635 2.87184 49.7698 14.2446 49.7698 28.1443C49.7698 31.5238 49.1347 34.7928 47.8897 37.8819C46.9386 37.4181 45.877 37.1504 44.7518 37.1504C40.7553 37.1504 37.5037 40.4332 37.5037 44.4679C37.5037 46.2258 38.1217 47.8402 39.1487 49.1033C35.0599 52.1015 30.2934 53.7755 25.2375 53.9911V52.9112C25.2375 52.2895 24.7383 51.7854 24.1224 51.7854C23.5066 51.7854 23.0073 52.2895 23.0073 52.9112V55.1627C23.0073 55.7844 23.5066 56.2885 24.1224 56.2885C30.2352 56.2885 36.0041 54.3238 40.8604 50.631C41.9861 51.3579 43.3195 51.7854 44.7518 51.7854C48.7484 51.7854 52 48.5027 52 44.4679C52.0003 42.394 51.1375 40.5232 49.7598 39.1906ZM23.0076 28.4958C23.0076 29.1175 23.5069 29.6215 24.1227 29.6215C24.7385 29.6215 25.2378 29.1175 25.2378 28.4958V26.9898C29.5895 26.6979 33.0435 23.0409 33.0435 18.5749C33.0435 14.109 29.5895 10.4519 25.2378 10.1601V8.58372C25.2378 7.96201 24.7385 7.45795 24.1227 7.45795C23.5069 7.45795 23.0076 7.96201 23.0076 8.58372V10.3019C19.1948 11.0863 16.317 14.4974 16.317 18.5749C16.317 22.6525 19.1948 26.0636 23.0076 26.8479V28.4958ZM18.5472 18.5749C18.5472 15.1607 21.2984 12.3832 24.6803 12.3832C28.0621 12.3832 30.8133 15.1607 30.8133 18.5749C30.8133 21.9891 28.0621 24.7667 24.6803 24.7667C21.2984 24.7667 18.5472 21.9891 18.5472 18.5749ZM25.2378 43.1446V48.0282C25.2378 48.6499 24.7385 49.1539 24.1227 49.1539C23.5069 49.1539 23.0076 48.6499 23.0076 48.0282V43.1446C23.0076 42.5229 23.5069 42.0188 24.1227 42.0188C24.7385 42.0188 25.2378 42.5229 25.2378 43.1446ZM25.2378 38.2618C25.2378 38.8835 24.7385 39.3876 24.1227 39.3876C23.5069 39.3876 23.0076 38.8835 23.0076 38.2618V33.3788C23.0076 32.7571 23.5069 32.253 24.1227 32.253C24.7385 32.253 25.2378 32.7571 25.2378 33.3788V38.2618ZM7.39619 1.12549C4.93684 1.12549 2.93578 3.14568 2.93578 5.62857C2.93578 8.11146 4.93684 10.1317 7.39619 10.1317C9.85555 10.1317 11.8566 8.11146 11.8566 5.62857C11.8566 3.14568 9.85555 1.12549 7.39619 1.12549ZM7.39619 7.88011C6.16623 7.88011 5.16599 6.87029 5.16599 5.62857C5.16599 4.38685 6.16623 3.37703 7.39619 3.37703C8.62615 3.37703 9.6264 4.38685 9.6264 5.62857C9.6264 6.87029 8.62615 7.88011 7.39619 7.88011ZM10.3314 48.9707C10.3314 49.6746 9.76606 50.2454 9.06857 50.2454C8.37107 50.2454 7.80571 49.6746 7.80571 48.9707C7.80571 48.2666 8.37107 47.6958 9.06857 47.6958C9.76606 47.6958 10.3314 48.2668 10.3314 48.9707ZM2.52571 55.7253C2.52571 56.4292 1.96035 57 1.26285 57C0.565356 57 0 56.4292 0 55.7253C0 55.0212 0.565356 54.4504 1.26285 54.4504C1.96035 54.4504 2.52571 55.0215 2.52571 55.7253ZM3.64081 43.3419C3.64081 44.0458 3.07545 44.6165 2.37795 44.6165C1.68046 44.6165 1.1151 44.0458 1.1151 43.3419C1.1151 42.6377 1.68046 42.0669 2.37795 42.0669C3.07545 42.0669 3.64081 42.638 3.64081 43.3419Z" fill="white"/>
</svg>