<svg xmlns="http://www.w3.org/2000/svg" width="82" height="82" viewBox="0 0 82 82" fill="none">
    <g clip-path="url(#clip0)">
        <path d="M80.3783 77.3233C79.3673 76.7346 73.2124 72.923 69.9193 66.0315C77.6104 58.8399 81.9849 48.8354 81.9849 38.5966C81.9849 17.4063 63.5079 0.0059967 40.9925 0.0059967C18.4771 0.0059967 0 17.4063 0 38.5966C0 59.7869 18.4771 77.1872 40.9925 77.1872C44.0149 77.1872 47.2615 76.9039 51.7407 75.9628C63.5135 82.2185 74.0803 82.0427 78.1007 81.9792C79.8904 81.957 81.1898 82.2802 81.8584 80.4312C82.311 79.1909 81.6416 77.7583 80.3783 77.3233ZM45.7964 57.972C45.7964 60.6248 43.6456 62.7759 40.9925 62.7759C38.3393 62.7759 36.1886 60.6248 36.1886 57.972V38.5966C36.1886 35.9435 38.3393 33.7927 40.9925 33.7927C43.6456 33.7927 45.7964 35.9435 45.7964 38.5966V57.972ZM40.9925 26.427C38.3393 26.427 36.1886 24.2759 36.1886 21.6231C36.1886 18.9699 38.3393 16.8192 40.9925 16.8192C43.6456 16.8192 45.7964 18.9699 45.7964 21.6231C45.7964 24.2761 43.6456 26.427 40.9925 26.427Z" fill="white"/>
    </g>
    <defs>
        <clipPath id="clip0">
            <rect width="82" height="82" fill="white"/>
        </clipPath>
    </defs>
</svg>