<svg xmlns="http://www.w3.org/2000/svg" width="88" height="78" viewBox="0 0 88 78" fill="none">
    <path d="M68.2664 11.96C71.3247 11.96 73.813 9.47235 73.813 6.41337C73.813 3.35438 71.3247 0.866699 68.2664 0.866699C65.2081 0.866699 62.7197 3.35438 62.7197 6.41337C62.7197 9.47235 65.2081 11.96 68.2664 11.96ZM68.2664 3.64003C69.7959 3.64003 71.0397 4.88457 71.0397 6.41337C71.0397 7.94217 69.7959 9.1867 68.2664 9.1867C66.7369 9.1867 65.4931 7.94217 65.4931 6.41337C65.4931 4.88457 66.7369 3.64003 68.2664 3.64003Z" fill="white"/>
    <path d="M70.3463 70.7096C69.4793 70.7096 68.7759 71.4126 68.7759 72.28C68.7759 73.147 69.4789 73.8501 70.3463 73.8501C71.2136 73.8501 71.9167 73.147 71.9167 72.28C71.9167 71.4126 71.2133 70.7096 70.3463 70.7096Z" fill="white"/>
    <path d="M20.4264 4.51679C21.2934 4.51679 21.9968 3.81375 21.9968 2.94674C21.9968 2.07938 21.2937 1.37634 20.4264 1.37634C19.559 1.37634 18.856 2.07938 18.856 2.94674C18.856 3.81375 19.5593 4.51679 20.4264 4.51679Z" fill="white"/>
    <path d="M19.0396 14.2235C19.9066 14.2235 20.61 13.5204 20.61 12.6534C20.61 11.786 19.907 11.083 19.0396 11.083C18.1723 11.083 17.4692 11.786 17.4692 12.6534C17.4692 13.5204 18.1726 14.2235 19.0396 14.2235Z" fill="white"/>
    <path d="M41.7104 40.0997L22.1002 20.4888C21.5802 19.9688 20.6594 19.9688 20.1394 20.4888L0.529167 40.0997C-0.0123265 40.6412 -0.0123265 41.5189 0.529167 42.0604L20.1394 61.6714C20.3994 61.9314 20.7523 62.0777 21.1198 62.0777C21.4872 62.0777 21.8402 61.9314 22.1002 61.6714L41.7104 42.0604C42.2522 41.5189 42.2522 40.6412 41.7104 40.0997ZM21.1198 58.7303L3.47029 41.0801L21.1198 23.4299L38.7693 41.0801L21.1198 58.7303Z" fill="white"/>
    <path d="M20.1396 29.0064L9.04626 40.0997C8.50476 40.6412 8.50476 41.5189 9.04626 42.0604L20.1396 53.1538C20.4103 53.4245 20.7653 53.5601 21.12 53.5601C21.4746 53.5601 21.8296 53.4245 22.1003 53.1538L33.1937 42.0604C33.7352 41.5189 33.7352 40.6412 33.1937 40.0997L22.1003 29.0064C21.5588 28.4645 20.6811 28.4645 20.1396 29.0064ZM30.2525 41.0801L21.12 50.2126L11.9874 41.0801L21.12 31.9475L30.2525 41.0801Z" fill="white"/>
    <path d="M87.4706 40.0997L67.8604 20.4888C67.3404 19.9688 66.4197 19.9688 65.8997 20.4888L46.2894 40.0997C45.7479 40.6412 45.7479 41.5189 46.2894 42.0604L65.8997 61.6714C66.1597 61.9314 66.5126 62.0777 66.88 62.0777C67.2475 62.0777 67.6004 61.9314 67.8604 61.6714L87.4706 42.0604C88.0125 41.5189 88.0125 40.6412 87.4706 40.0997ZM66.88 58.7303L49.2305 41.0801L66.88 23.4299L84.5295 41.0801L66.88 58.7303Z" fill="white"/>
    <path d="M65.8994 29.0064L54.806 40.0997C54.2645 40.6412 54.2645 41.5189 54.806 42.0604L65.8994 53.1538C66.1701 53.4245 66.5251 53.5601 66.8797 53.5601C67.2344 53.5601 67.5894 53.4245 67.8601 53.1538L78.9534 42.0604C79.4949 41.5189 79.4949 40.6412 78.9534 40.0997L67.8601 29.0064C67.3186 28.4645 66.4409 28.4645 65.8994 29.0064ZM76.0123 41.0801L66.8797 50.2126L57.7471 41.0801L66.8797 31.9475L76.0123 41.0801Z" fill="white"/>
    <path d="M42.3261 28.1938C42.5969 28.4645 42.9519 28.6001 43.3065 28.6001C43.6611 28.6001 44.0161 28.4645 44.2869 28.1938L55.3802 17.1005C55.9217 16.559 55.9217 15.6812 55.3802 15.1397L44.2869 4.04638C43.7454 3.50489 42.8676 3.50489 42.3261 4.04638L31.2328 15.1397C30.6913 15.6812 30.6913 16.559 31.2328 17.1005L42.3261 28.1938ZM43.3065 6.9875L52.4391 16.1201L43.3065 25.2527L34.1739 16.1201L43.3065 6.9875Z" fill="white"/>
    <path d="M44.2866 21.2605L48.4466 17.1005C48.9881 16.559 48.9881 15.6812 48.4466 15.1397L44.2866 10.9797C43.7451 10.4382 42.8674 10.4382 42.3259 10.9797L38.1659 15.1397C37.6244 15.6812 37.6244 16.559 38.1659 17.1005L42.3259 21.2605C42.5966 21.5312 42.9516 21.6668 43.3063 21.6668C43.6609 21.6668 44.0159 21.5312 44.2866 21.2605ZM41.107 16.1201L43.3063 13.9208L45.5055 16.1201L43.3063 18.3194L41.107 16.1201Z" fill="white"/>
    <path d="M44.2869 52.5797C43.7454 52.0382 42.8676 52.0382 42.3261 52.5797L31.2328 63.673C30.6913 64.2145 30.6913 65.0923 31.2328 65.6338L42.3261 76.7271C42.5969 76.9979 42.9519 77.1334 43.3065 77.1334C43.6611 77.1334 44.0161 76.9979 44.2869 76.7271L55.3802 65.6338C55.9217 65.0923 55.9217 64.2145 55.3802 63.673L44.2869 52.5797ZM43.3065 73.786L34.1739 64.6534L43.3065 55.5208L52.4391 64.6534L43.3065 73.786Z" fill="white"/>
    <path d="M42.3259 59.5129L38.1659 63.6729C37.6244 64.2144 37.6244 65.0922 38.1659 65.6337L42.3259 69.7937C42.5966 70.0644 42.9516 70.2 43.3063 70.2C43.6609 70.2 44.0159 70.0644 44.2866 69.7937L48.4466 65.6337C48.9881 65.0922 48.9881 64.2144 48.4466 63.6729L44.2866 59.5129C43.7451 58.9711 42.8674 58.9711 42.3259 59.5129ZM45.5055 64.6533L43.3063 66.8526L41.107 64.6533L43.3063 62.4541L45.5055 64.6533Z" fill="white"/>
</svg>