<svg xmlns="http://www.w3.org/2000/svg" width="62" height="68" viewBox="0 0 62 68" fill="none">
    <path d="M56.1464 3.33325C53.4404 3.33325 51.2397 5.5345 51.2397 8.23992C51.2397 10.9453 53.4404 13.1466 56.1464 13.1466C58.8524 13.1466 61.0531 10.9453 61.0531 8.23992C61.0531 5.5345 58.8524 3.33325 56.1464 3.33325ZM56.1464 10.6932C54.794 10.6932 53.6931 9.59293 53.6931 8.23992C53.6931 6.8869 54.794 5.78658 56.1464 5.78658C57.4988 5.78658 58.5998 6.8869 58.5998 8.23992C58.5998 9.59293 57.4988 10.6932 56.1464 10.6932Z" fill="white"/>
    <path d="M45.7198 9.01552C46.4867 9.01552 47.109 8.3936 47.109 7.62663C47.109 6.85935 46.487 6.23743 45.7198 6.23743C44.9525 6.23743 44.3306 6.85935 44.3306 7.62663C44.3306 8.3936 44.9528 9.01552 45.7198 9.01552Z" fill="white"/>
    <path d="M58.149 17.44C58.149 16.6727 57.5271 16.0508 56.7598 16.0508C55.9925 16.0508 55.3706 16.6727 55.3706 17.44C55.3706 18.207 55.9925 18.8289 56.7598 18.8289C57.5271 18.8289 58.149 18.207 58.149 17.44Z" fill="white"/>
    <path d="M57.9868 32.938L2.78678 1.04464C2.40835 0.825373 1.94099 0.82476 1.56011 1.04403C1.18046 1.26329 0.946777 1.66809 0.946777 2.10663V65.8933C0.946777 66.3318 1.18046 66.7366 1.56011 66.9559C1.75055 67.0654 1.96154 67.12 2.17344 67.12C2.38535 67.12 2.59756 67.0648 2.78678 66.9553L57.9868 35.0619C58.3664 34.8427 58.6001 34.4379 58.6001 34C58.6001 33.562 58.3664 33.1572 57.9868 32.938ZM21.5618 34L3.40011 61.7757V6.22424L21.5618 34ZM23.6904 35.2266H52.7983L6.01782 62.255L23.6904 35.2266ZM23.6904 32.7733L6.01782 5.74492L52.7983 32.7733H23.6904Z" fill="white"/>
</svg>